<svg
    xmlns="http://www.w3.org/2000/svg"
    width="900"
    height="500"
    viewBox="0 0 900 500"
    role="img"
    aria-labelledby="title description"
>
    <title id="title">Repository Traffic Analytics</title>
    <desc id="description">
        Traffic analytics for Unknown903-dev/email-automation-scripts showing views,
        unique visitors, clones, and unique cloners.
    </desc>

    <style>
        text {
            font-family:
                -apple-system,
                BlinkMacSystemFont,
                "Segoe UI",
                Helvetica,
                Arial,
                sans-serif;
        }

        .title {
            fill: #f0f6fc;
            font-size: 24px;
            font-weight: 600;
        }

        .subtitle {
            fill: #8b949e;
            font-size: 13px;
        }

        .axis {
            fill: #8b949e;
            font-size: 11px;
        }

        .metric {
            fill: #f0f6fc;
            font-size: 25px;
            font-weight: 600;
        }

        .metric-label {
            fill: #8b949e;
            font-size: 13px;
        }

        .legend {
            fill: #c9d1d9;
            font-size: 12px;
        }
    </style>

    <rect width="900" height="500" rx="12" fill="#0d1117" />

    <text x="40" y="42" class="title">
        Repository Traffic
    </text>

    <text x="40" y="66" class="subtitle">
        Unknown903-dev/email-automation-scripts • latest 18 stored days
    </text>

    
            <line
                x1="55"
                y1="90.0"
                x2="845"
                y2="90.0"
                stroke="#30363d"
                stroke-width="1"
            />
            <text
                x="43"
                y="95.0"
                text-anchor="end"
                class="axis"
            >43</text>
            
            <line
                x1="55"
                y1="145.0"
                x2="845"
                y2="145.0"
                stroke="#30363d"
                stroke-width="1"
            />
            <text
                x="43"
                y="150.0"
                text-anchor="end"
                class="axis"
            >32</text>
            
            <line
                x1="55"
                y1="200.0"
                x2="845"
                y2="200.0"
                stroke="#30363d"
                stroke-width="1"
            />
            <text
                x="43"
                y="205.0"
                text-anchor="end"
                class="axis"
            >22</text>
            
            <line
                x1="55"
                y1="255.0"
                x2="845"
                y2="255.0"
                stroke="#30363d"
                stroke-width="1"
            />
            <text
                x="43"
                y="260.0"
                text-anchor="end"
                class="axis"
            >11</text>
            
            <line
                x1="55"
                y1="310.0"
                x2="845"
                y2="310.0"
                stroke="#30363d"
                stroke-width="1"
            />
            <text
                x="43"
                y="315.0"
                text-anchor="end"
                class="axis"
            >0</text>
            

    <polyline
        points="55.0,310.0 101.5,310.0 147.9,248.6 194.4,304.9 240.9,310.0 287.4,304.9 333.8,310.0 380.3,310.0 426.8,310.0 473.2,310.0 519.7,310.0 566.2,304.9 612.6,310.0 659.1,310.0 705.6,90.0 752.1,212.8 798.5,238.4 845.0,223.0"
        fill="none"
        stroke="#58a6ff"
        stroke-width="3"
        stroke-linecap="round"
        stroke-linejoin="round"
    />

    <polyline
        points="55.0,310.0 101.5,310.0 147.9,304.9 194.4,304.9 240.9,310.0 287.4,304.9 333.8,310.0 380.3,310.0 426.8,310.0 473.2,310.0 519.7,310.0 566.2,304.9 612.6,310.0 659.1,310.0 705.6,294.7 752.1,299.8 798.5,289.5 845.0,299.8"
        fill="none"
        stroke="#3fb950"
        stroke-width="3"
        stroke-linecap="round"
        stroke-linejoin="round"
    />

    <circle cx="610" cy="45" r="5" fill="#58a6ff" />
    <text x="622" y="49" class="legend">Views</text>

    <circle cx="690" cy="45" r="5" fill="#3fb950" />
    <text x="702" y="49" class="legend">Unique visitors</text>

    <text
        x="55"
        y="335"
        class="axis"
    >
        2026-07-29
    </text>

    <text
        x="845"
        y="335"
        text-anchor="end"
        class="axis"
    >
        2026-08-15
    </text>

    <line
        x1="40"
        y1="355"
        x2="860"
        y2="355"
        stroke="#30363d"
    />

    <text x="65" y="405" class="metric">108</text>
    <text x="65" y="430" class="metric-label">Views</text>

    <text x="265" y="405" class="metric">15</text>
    <text x="265" y="430" class="metric-label">Unique visitors</text>

    <text x="505" y="405" class="metric">39</text>
    <text x="505" y="430" class="metric-label">Clones</text>

    <text x="705" y="405" class="metric">29</text>
    <text x="705" y="430" class="metric-label">Unique cloners</text>

    <text x="40" y="475" class="subtitle">
        Last updated: 2026-08-16 10:36 UTC
    </text>
</svg>
